<svg id="Layer_1" data-name="Layer 1" xmlns="http://www.w3.org/2000/svg" viewBox="0 0 22.84 22"><defs><style>.cls-1{fill:#fff;}</style></defs><title>Icons</title><path class="cls-1" d="M.88,12.54V11.06c0-2.72,1.78-4.7,4.92-4.7,2.78,0,4.66,1.74,4.74,4.12H8.06a2,2,0,0,0-2.2-1.92A2.13,2.13,0,0,0,3.6,11v1.68A2.13,2.13,0,0,0,5.86,15a2,2,0,0,0,2.2-1.92h2.48c-.08,2.38-2,4.12-4.74,4.12C2.66,17.24.88,15.26.88,12.54Z"/><path class="cls-1" d="M12.3,12.54V11.06c0-2.72,1.78-4.7,4.92-4.7C20,6.36,21.88,8.1,22,10.48H19.48a2,2,0,0,0-2.2-1.92A2.13,2.13,0,0,0,15,11v1.68A2.13,2.13,0,0,0,17.28,15a2,2,0,0,0,2.2-1.92H22c-.08,2.38-2,4.12-4.74,4.12C14.08,17.24,12.3,15.26,12.3,12.54Z"/></svg>