<svg xmlns="http://www.w3.org/2000/svg" xmlns:xlink="http://www.w3.org/1999/xlink" id="Layer_1" data-name="Layer 1" viewBox="0 0 38.35 26.94">
  <defs>
    <style>
      .vo-cls-1{fill:#fff;}.vo-cls-2{clip-path:url(#clip-path-vo);}.vo-cls-3{fill:#22c2f2;}
    </style>
    <clipPath id="clip-path-vo">
      <polygon points="124.09 -69.79 124.06 -65.56 126.99 -65.56 127.02 -69.76 130.38 -69.76 125.75 -75.62 120.51 -69.79 124.09 -69.79" class="vo-cls-1"/>
    </clipPath>
  </defs>
  <title>
    Icons
  </title>
  <polygon points="124.09 -69.79 124.06 -65.56 126.99 -65.56 127.02 -69.76 130.38 -69.76 125.75 -75.62 120.51 -69.79 124.09 -69.79" class="vo-cls-1"/>
  <g class="vo-cls-2">
    <g id="SVGID-vo">
      <rect width="140.14" height="186.87" x="-1.03" y="-151.17" class="vo-cls-1"/>
    </g>
    <rect width="140.14" height="186.87" x="-1.03" y="-151.17" class="vo-cls-1"/>
  </g>
  <ellipse cx="19.18" cy="12.07" class="vo-cls-1" rx="19.18" ry="12.07"/>
  <path d="M36,15.67,27.9,20.44a25.73,25.73,0,0,1,9.1,6.5,25.61,25.61,0,0,0,0-6.38A25.34,25.34,0,0,0,36,15.67Z" class="vo-cls-1"/>
  <path d="M2.76,13.76,2.11,13c1.67-1.44,3.06-2,4.24-1.62a2.91,2.91,0,0,1,.79.38,1.17,1.17,0,0,0,.68.24h0a1.34,1.34,0,0,0,.93-.45,2.43,2.43,0,0,1,1.45-.67,1.92,1.92,0,0,1,1.4.52,3,3,0,0,0,1.18.62,4,4,0,0,0,2.56-.14,3.27,3.27,0,0,0,1.35-1.15c.33-.42.71-.89,1.33-.82.79.09,1.15.95,1.47,1.7.14.33.43,1,.6,1h0c.07,0,.29-.3.4-.44a2.51,2.51,0,0,1,1.56-1.16,2,2,0,0,1,1.55.42,1.86,1.86,0,0,0,1.09.37,1.58,1.58,0,0,0,.94-.4,2.3,2.3,0,0,1,1.48-.56h0a2.32,2.32,0,0,1,1.38.48,1.35,1.35,0,0,0,1.77,0,2.48,2.48,0,0,1,1.14-.46c1.08-.12,2.21.6,3.42,2.2l-.8.6c-.66-.88-1.66-1.91-2.51-1.81a1.63,1.63,0,0,0-.7.31,2.48,2.48,0,0,1-1.45.5A2.46,2.46,0,0,1,28,12.2a1.35,1.35,0,0,0-.84-.32,1.42,1.42,0,0,0-.91.37,2.48,2.48,0,0,1-1.48.59,2.65,2.65,0,0,1-1.67-.53c-.36-.23-.55-.33-.84-.28s-.67.42-.94.78-.66.9-1.28.84c-.79-.07-1.14-.91-1.46-1.65-.16-.4-.44-1.07-.66-1.09h0c-.08,0-.27.25-.42.43a4.35,4.35,0,0,1-1.73,1.46,5,5,0,0,1-3.24.18A4,4,0,0,1,11,12.19c-.33-.25-.45-.33-.73-.31a1.46,1.46,0,0,0-.87.44A2.3,2.3,0,0,1,7.83,13a1.89,1.89,0,0,1-1.21-.39,2.16,2.16,0,0,0-.55-.27C5.25,12.1,4.14,12.58,2.76,13.76Z" class="vo-cls-3"/>
</svg>
