
<svg xmlns="http://www.w3.org/2000/svg" version="1.1" xmlns:xlink="http://www.w3.org/1999/xlink" preserveAspectRatio="none" x="0px" y="0px" width="650px" height="45px" viewBox="0 0 650 45">
<defs>
<linearGradient id="Gradient_1" gradientUnits="userSpaceOnUse" x1="-0.5" y1="22" x2="449.5" y2="22" spreadMethod="pad">
<stop  offset="0%" stop-color="#5A4078" stop-opacity="0.7098039215686275"/>

<stop  offset="30.58823529411765%" stop-color="#6916CB" stop-opacity="0"/>

<stop  offset="70.58823529411765%" stop-color="#6916C7" stop-opacity="0"/>

<stop  offset="100%" stop-color="#5A4078" stop-opacity="0.7411764705882353"/>
</linearGradient>

<radialGradient id="Gradient_2" gradientUnits="userSpaceOnUse" cx="0" cy="0" r="49.962500000000006" fx="0" fy="0" gradientTransform="matrix( 0, -1, 4.3007255441581185, 0.0007505629221916438, 236.95,-0.5) " spreadMethod="pad">
<stop  offset="0%" stop-color="#DA83DE"/>

<stop  offset="100%" stop-color="#8D54A0" stop-opacity="0"/>
</radialGradient>

<g id="logoBase_0_Layer2_0_FILL">
<path fill="#6F5995" stroke="none" d="
M 449.5 -0.5
L -0.5 -0.5 -0.5 44.5 449.5 44.5 449.5 -0.5 Z"/>
</g>

<g id="logoBase_0_Layer1_0_FILL">
<path fill="url(#Gradient_1)" stroke="none" d="
M 449.5 -0.5
L -0.5 -0.5 -0.5 44.5 449.5 44.5 449.5 -0.5 Z"/>
</g>

<g id="logoBase_0_Layer0_0_FILL">
<path fill="url(#Gradient_2)" stroke="none" d="
M 449.5 -0.5
L -0.5 -0.5 -0.5 44.5 449.5 44.5 449.5 -0.5 Z"/>
</g>
</defs>

<g id="logoBase" transform="matrix( 1.4444427490234375, 0, 0, 1, 0,0) ">
<g transform="matrix( 1, 0, 0, 1, 0.5,0.5) ">
<use xlink:href="#logoBase_0_Layer2_0_FILL"/>
</g>

<g transform="matrix( 1, 0, 0, 1, 0.5,0.5) ">
<use xlink:href="#logoBase_0_Layer1_0_FILL"/>
</g>

<g transform="matrix( 1, 0, 0, 1, 0.5,0.5) ">
<use xlink:href="#logoBase_0_Layer0_0_FILL"/>
</g>
</g>
</svg>
