
<svg xmlns="http://www.w3.org/2000/svg" version="1.1" xmlns:xlink="http://www.w3.org/1999/xlink" preserveAspectRatio="none" x="0px" y="0px" width="170px" height="22px" viewBox="0 0 170 22">
<defs>
<g id="CloudKidTraceLogo_0_Layer1_0_FILL">
<path fill="#FFFFFF" stroke="none" d="
M 37.2 4.5
Q 37.95 4.7 38.6 5
L 39.1 3.3
Q 37.3 2.55 35.25 2.55 34.35 2.55 33.45 2.7 32.6 2.9 31.8 3.2 31.05 3.45 30.4 3.9 29.7 4.35 29.15 4.9 28.6 5.45 28.15 6.15 27.75 6.8 27.45 7.6 27.1 8.35 26.95 9.25 26.8 10.1 26.8 11.05 26.8 12.05 26.95 12.95 27.1 13.8 27.45 14.55 27.7 15.35 28.15 16 28.55 16.6 29.1 17.15 29.65 17.65 30.25 18.05 30.9 18.45 31.65 18.7 32.35 19 33.15 19.1
L 34.8 19.25
Q 36.2 19.25 37.4 19 38.45 18.8 39.1 18.45
L 38.65 16.8
Q 38 17.15 37.1 17.3 36.2 17.5 35.25 17.5 33.35 17.3 32.6 17.05 31.45 16.6 30.65 15.7 29.85 14.9 29.45 13.65 29 12.45 29 11 29 9.9 29.5 8.15 29.9 6.9 30.75 6.05 31.6 5.2 32.75 4.75 33.9 4.3 35.35 4.3 36.3 4.3 37.2 4.5
M 44.05 8.7
Q 44.85 8.7 45.45 8.95 45.95 9.2 46.25 9.65 46.7 10.3 46.7 11.35
L 46.7 11.6
Q 45 11.6 43.7 11.9 42.4 12.15 41.5 12.7 40.6 13.25 40.15 14.05 39.7 14.9 39.7 15.95 39.7 16.55 39.9 17.15 40.15 17.75 40.6 18.25 41.05 18.7 41.7 19 42.4 19.25 43.25 19.25 44.4 19.25 45.4 18.75 46.25 18.3 46.8 17.55
L 46.85 17.55 47.05 19 48.95 19
Q 48.75 17.95 48.75 16.2
L 48.75 11.9
Q 48.75 10.95 48.6 10.15 48.35 9.25 47.9 8.65 47.35 7.9 46.55 7.55 45.6 7.1 44.35 7.1 43.25 7.1 42.25 7.4 41.25 7.7 40.55 8.15
L 41 9.55
Q 41.65 9.15 42.4 8.9 43.25 8.7 44.05 8.7
M 46.75 13.05
L 46.75 15.1 46.6 15.75
Q 46.35 16.55 45.65 17.1 45.25 17.4 44.85 17.55 44.35 17.7 43.8 17.7 42.95 17.7 42.4 17.2 41.8 16.65 41.8 15.7 41.8 14.9 42.25 14.3 42.65 13.8 43.4 13.5 44.35 13.15 46.75 13.05
M 70.7 19
L 72.8 19 72.8 7.4 70.7 7.4 70.7 19
M 61.8 10.6
Q 61.4 9.55 60.75 8.75 60.1 7.95 59.15 7.55 58.25 7.1 57.25 7.1 56.55 7.1 55.9 7.25 55.3 7.4 54.75 7.7 54.25 8 53.85 8.45 53.4 8.85 53.1 9.4
L 53.05 9.4 52.95 7.4 51.05 7.4 51.15 23.75 53.25 23.75 53.25 17.45 53.3 17.45
Q 53.8 18.3 54.75 18.8 55.7 19.25 56.85 19.25 57.9 19.25 58.85 18.85 59.8 18.45 60.55 17.7 61.3 16.9 61.7 15.75 62 15 62.15 13 62.15 11.7 61.8 10.6
M 53.25 12.3
Q 53.25 11.95 53.4 11.4 53.55 10.85 53.85 10.35 54.15 9.85 54.6 9.5 55.05 9.15 55.55 9 56.05 8.8 56.55 8.8 57.4 8.8 58.05 9.15 58.7 9.45 59.15 10.1 59.55 10.7 59.8 11.45 60.05 12.25 60.05 13.1 60.05 14.1 59.8 14.95 59.55 15.75 59.1 16.35 58.65 16.95 58 17.3 57.35 17.6 56.5 17.6 55.95 17.6 55.4 17.45 54.9 17.25 54.5 16.95 54.1 16.6 53.8 16.15 53.5 15.7 53.35 15.15
L 53.25 14.3 53.25 12.3
M 62.5 9
L 64.3 9 64.3 15.35
Q 64.3 16.4 64.45 17.1 64.65 17.9 65.1 18.35 65.45 18.8 66.05 19 66.65 19.25 67.4 19.25 68.55 19.25 69.25 18.95
L 69.15 17.35
Q 68.6 17.5 67.95 17.5 67.1 17.5 66.7 16.95 66.35 16.4 66.35 15.25
L 66.35 9 69.35 9 69.35 7.4 66.35 7.4 66.35 4.05 64.3 4.6 64.3 7.4 62.5 7.4 62.5 9
M 71.7 5.4
Q 72.35 5.4 72.7 5.05 73.1 4.65 73.05 4.1 73.05 3.55 72.7 3.2 72.35 2.8 71.75 2.8 71.2 2.8 70.8 3.2 70.45 3.55 70.45 4.1 70.45 4.65 70.8 5.05 71.15 5.4 71.7 5.4
M 85.4 10.65
Q 85 9.6 84.25 8.8 83.5 7.95 82.5 7.55 81.45 7.1 80.2 7.1 79 7.1 77.95 7.55 76.9 7.95 76.15 8.75 75.35 9.55 74.9 10.7 74.45 11.85 74.45 13.3 74.45 14.65 74.9 15.75 75.3 16.85 76.05 17.65 76.8 18.45 77.85 18.85 78.85 19.25 80.05 19.25 81.1 19.25 82.1 18.9 83.2 18.5 84 17.8 84.85 17 85.3 15.85 85.55 15.25 85.7 14.6 85.8 13.9 85.8 13.1 85.8 11.8 85.4 10.65
M 81.75 9.1
Q 82.4 9.5 82.85 10.2 83.25 10.8 83.45 11.65 83.65 12.4 83.65 13.15 83.65 14.15 83.4 15 83.1 15.8 82.65 16.4 82.15 17 81.55 17.35 80.85 17.7 80.1 17.7 79.35 17.7 78.7 17.35 78.05 17 77.6 16.4 77.1 15.8 76.85 15 76.6 14.15 76.6 13.2 76.6 12.35 76.8 11.6 77.05 10.75 77.45 10.15 77.9 9.45 78.55 9.1 79.25 8.7 80.15 8.7 81.05 8.7 81.75 9.1
M 92.55 8.9
Q 93.25 8.9 93.8 9.15 94.3 9.4 94.65 9.9 94.95 10.35 95.1 10.95 95.25 11.55 95.25 12.3
L 95.25 19 97.35 19 97.35 12.05
Q 97.35 10.65 96.95 9.6 96.55 8.7 95.9 8.1 95.3 7.6 94.55 7.35 93.9 7.1 93.25 7.1 92.55 7.1 91.9 7.3 91.35 7.5 90.8 7.8 89.85 8.4 89.4 9.3
L 89.35 9.3 89.25 7.4 87.35 7.4 87.45 19 89.55 19 89.55 12
Q 89.55 11.45 89.7 11.05 90 10.1 90.75 9.5 91.55 8.9 92.55 8.9
M 114.7 5
L 115.2 3.3
Q 113.4 2.55 111.35 2.55 110.45 2.55 109.55 2.7 108.7 2.9 107.9 3.2 107.15 3.45 106.5 3.9 105.8 4.35 105.25 4.9 104.7 5.45 104.25 6.15 103.85 6.8 103.55 7.6 103.2 8.35 103.05 9.25 102.9 10.1 102.9 11.05 102.9 12.05 103.05 12.95 103.2 13.8 103.55 14.55 103.8 15.35 104.25 16 104.65 16.6 105.2 17.15 105.75 17.65 106.35 18.05 107 18.45 107.75 18.7 108.45 19 109.25 19.1
L 110.9 19.25
Q 112.3 19.25 113.5 19 114.55 18.8 115.2 18.45
L 114.75 16.8
Q 114.1 17.15 113.2 17.3 112.3 17.5 111.35 17.5 109.45 17.3 108.7 17.05 107.55 16.6 106.75 15.7 105.95 14.9 105.55 13.65 105.1 12.45 105.1 11 105.1 9.9 105.6 8.15 106 6.9 106.85 6.05 107.7 5.2 108.85 4.75 110 4.3 111.45 4.3 112.4 4.3 113.3 4.5 114.05 4.7 114.7 5
M 121.7 9.1
L 122.45 9.2 122.45 7.2 121.85 7.1
Q 121.3 7.1 120.8 7.3 120.3 7.45 119.9 7.8 119.45 8.15 119.15 8.6 118.8 9.1 118.6 9.65
L 118.5 9.65 118.45 7.4 116.6 7.4 116.7 19 118.8 19 118.8 12.8 118.9 11.85
Q 119 11.25 119.25 10.75 119.5 10.25 119.85 9.85 120.2 9.5 120.7 9.3 121.15 9.1 121.7 9.1
M 132.7 10.85
Q 132.45 9.8 131.95 9.05 131.35 8.15 130.45 7.7 130 7.4 129.4 7.25 128.8 7.1 128.1 7.1 126.85 7.1 125.85 7.6 124.85 8.05 124.1 8.95 123.4 9.8 123.05 10.95 122.65 12.05 122.65 13.4 122.65 14.7 123.05 15.8 123.45 16.85 124.2 17.65 124.95 18.4 125.95 18.8 127.05 19.25 128.35 19.25 130.2 19.25 132.25 18.5
L 131.9 17
Q 130.2 17.6 128.65 17.6 127.85 17.6 127.15 17.4 126.45 17.15 125.9 16.65 125.35 16.15 125 15.4 124.7 14.6 124.7 13.55
L 132.85 13.55 132.9 12.6
Q 132.9 11.7 132.7 10.85
M 124.7 12.05
Q 124.75 11.5 125 10.9 125.2 10.3 125.6 9.8 126 9.25 126.55 8.95 127.2 8.65 127.95 8.65 128.8 8.65 129.4 9 129.95 9.3 130.3 9.85 130.6 10.35 130.75 10.95 130.9 11.5 130.85 12.05
L 124.7 12.05
M 142.5 10.15
Q 142.25 9.25 141.8 8.65 141.25 7.9 140.45 7.55 139.5 7.1 138.25 7.1 137.15 7.1 136.15 7.4 135.15 7.7 134.45 8.15
L 134.9 9.55
Q 135.55 9.15 136.3 8.9 137.15 8.7 137.95 8.7 138.75 8.7 139.35 8.95 139.85 9.2 140.15 9.65 140.6 10.3 140.6 11.35
L 140.6 11.6
Q 138.9 11.6 137.6 11.9 136.3 12.15 135.4 12.7 134.5 13.25 134.05 14.05 133.6 14.9 133.6 15.95 133.6 16.55 133.8 17.15 134.05 17.75 134.5 18.25 134.95 18.7 135.6 19 136.3 19.25 137.15 19.25 138.3 19.25 139.3 18.75 140.15 18.3 140.7 17.55
L 140.75 17.55 140.95 19 142.85 19
Q 142.65 17.95 142.65 16.2
L 142.65 11.9
Q 142.65 10.95 142.5 10.15
M 140.65 13.05
L 140.65 15.1 140.5 15.75
Q 140.25 16.55 139.55 17.1 139.15 17.4 138.75 17.55 138.25 17.7 137.7 17.7 136.85 17.7 136.3 17.2 135.7 16.65 135.7 15.7 135.7 14.9 136.15 14.3 136.55 13.8 137.3 13.5 138.25 13.15 140.65 13.05
M 143.75 9
L 145.55 9 145.55 15.35
Q 145.55 16.4 145.7 17.1 145.9 17.9 146.35 18.35 146.7 18.8 147.3 19 147.9 19.25 148.65 19.25 149.8 19.25 150.5 18.95
L 150.4 17.35
Q 149.85 17.5 149.2 17.5 148.35 17.5 147.95 16.95 147.6 16.4 147.6 15.25
L 147.6 9 150.6 9 150.6 7.4 147.6 7.4 147.6 4.05 145.55 4.6 145.55 7.4 143.75 7.4 143.75 9
M 162.35 14.6
Q 162.45 13.9 162.45 13.1 162.45 11.8 162.05 10.65 161.65 9.6 160.9 8.8 160.15 7.95 159.15 7.55 158.1 7.1 156.85 7.1 155.65 7.1 154.6 7.55 153.55 7.95 152.8 8.75 152 9.55 151.55 10.7 151.1 11.85 151.1 13.3 151.1 14.65 151.55 15.75 151.95 16.85 152.7 17.65 153.45 18.45 154.5 18.85 155.5 19.25 156.7 19.25 157.75 19.25 158.75 18.9 159.85 18.5 160.65 17.8 161.5 17 161.95 15.85 162.2 15.25 162.35 14.6
M 155.2 9.1
Q 155.9 8.7 156.8 8.7 157.7 8.7 158.4 9.1 159.05 9.5 159.5 10.2 159.9 10.8 160.1 11.65 160.3 12.4 160.3 13.15 160.3 14.15 160.05 15 159.75 15.8 159.3 16.4 158.8 17 158.2 17.35 157.5 17.7 156.75 17.7 156 17.7 155.35 17.35 154.7 17 154.25 16.4 153.75 15.8 153.5 15 153.25 14.15 153.25 13.2 153.25 12.35 153.45 11.6 153.7 10.75 154.1 10.15 154.55 9.45 155.2 9.1
M 165.85 7.4
L 164 7.4 164.1 19 166.2 19 166.2 12.8 166.3 11.85
Q 166.4 11.25 166.65 10.75 166.9 10.25 167.25 9.85 167.6 9.5 168.1 9.3 168.55 9.1 169.1 9.1
L 169.85 9.2 169.85 7.2 169.25 7.1
Q 168.7 7.1 168.2 7.3 167.7 7.45 167.3 7.8 166.85 8.15 166.55 8.6 166.2 9.1 166 9.65
L 165.9 9.65 165.85 7.4 Z"/>
</g>

<g id="CloudKidTraceLogo_0_Layer0_0_FILL">
<path fill="#FFFFFF" stroke="none" d="
M 19.1 10.7
Q 19.1 9.1 18.35 7.7 17.65 6.35 16.3 5.25 14.95 4.2 13.25 3.6 11.45 3 9.5 3 7.55 3 5.75 3.6 4.05 4.2 2.7 5.25 1.35 6.35 0.65 7.7 -0.1 9.1 -0.1 10.7 -0.1 12.25 0.65 13.65 1.35 15.05 2.7 16.1 4.05 17.15 5.75 17.75 7.55 18.35 9.5 18.35 11.6 18.35 13.45 17.65 14.2 18.5 15.15 18.8 16.55 19.25 18.2 18.4 17.35 18.45 16.6 17.8 16.1 17.3 15.75 16.5 17.3 15.45 18.2 13.95 19.1 12.4 19.1 10.7
M 15.75 7.25
L 15.75 8.6 3.3 8.6 3.3 7.25 15.75 7.25
M 15.75 9.95
L 15.75 11.3 3.3 11.3 3.3 9.95 15.75 9.95
M 3.3 14
L 3.3 12.65 15.75 12.65 15.75 14 3.3 14 Z"/>
</g>
</defs>

<g id="logo" transform="matrix( 1, 0, 0, 1, 0,0) ">
<g transform="matrix( 1, 0, 0, 1, 0.1,-2.55) ">
<use xlink:href="#CloudKidTraceLogo_0_Layer1_0_FILL"/>
</g>

<g transform="matrix( 1, 0, 0, 1, 0.1,-2.55) ">
<use xlink:href="#CloudKidTraceLogo_0_Layer0_0_FILL"/>
</g>
</g>
</svg>
