
<svg xmlns="http://www.w3.org/2000/svg" version="1.1" xmlns:xlink="http://www.w3.org/1999/xlink" preserveAspectRatio="none" x="0px" y="0px" width="145px" height="21px" viewBox="0 0 145 21">
<defs>
<g id="CloudKidTraceLogo_0_Layer0_0_FILL">
<path fill="#FFFFFF" stroke="none" d="
M 35.25 3.35
Q 34.9 2.55 34.3 2 33.55 1.35 32.45 1.05 31.3 0.7 29.65 0.7 26.7 0.85 25.65 1.05
L 25.65 17 27.7 17 27.7 10 29.7 10
Q 30.4 10 30.9 10.2 31.45 10.4 31.85 10.75 32.2 11.1 32.5 11.7 32.75 12.3 32.9 13.15 33.35 15.15 34 17
L 36.15 17
Q 35.95 16.55 35.6 15.4
L 34.9 12.55
Q 34.6 11.25 34.05 10.45 33.45 9.6 32.55 9.3
L 32.55 9.2
Q 33.2 9 33.75 8.65 34.3 8.25 34.7 7.75 35.1 7.2 35.35 6.55 35.6 5.9 35.6 5.1 35.6 4.15 35.25 3.35
M 32.45 3.05
Q 32.95 3.45 33.2 4 33.5 4.55 33.5 5.35 33.5 6 33.25 6.6 33 7.15 32.5 7.55 32.05 8 31.35 8.2 30.7 8.4 29.85 8.4
L 27.7 8.4 27.7 2.5
Q 28.4 2.3 29.8 2.3 30.6 2.3 31.3 2.5 32 2.7 32.45 3.05
M 44.4 5.7
Q 43.95 5.4 43.35 5.25 42.75 5.1 42.05 5.1 40.8 5.1 39.8 5.6 38.8 6.05 38.05 6.95 37.35 7.8 37 8.95 36.6 10.05 36.6 11.4 36.6 12.7 37 13.8 37.4 14.85 38.15 15.65 38.9 16.4 39.9 16.8 41 17.25 42.3 17.25 44.15 17.25 46.2 16.5
L 45.85 15
Q 44.15 15.6 42.6 15.6 41.8 15.6 41.1 15.4 40.4 15.15 39.85 14.65 39.3 14.15 38.95 13.4 38.65 12.6 38.65 11.55
L 46.8 11.55 46.85 10.6
Q 46.85 9.7 46.65 8.85 46.4 7.8 45.9 7.05 45.3 6.15 44.4 5.7
M 41.9 6.65
Q 42.75 6.65 43.35 7 43.9 7.3 44.25 7.85 44.55 8.35 44.7 8.95 44.85 9.5 44.8 10.05
L 38.65 10.05
Q 38.7 9.5 38.95 8.9 39.15 8.3 39.55 7.8 39.95 7.25 40.5 6.95 41.15 6.65 41.9 6.65
M 62.45 5.35
Q 61.85 5.1 61.2 5.1 60.4 5.1 59.8 5.35 59.2 5.55 58.65 5.95 57.85 6.5 57.35 7.45
L 57.3 7.45
Q 56.9 6.4 56.05 5.75 55.65 5.45 55.15 5.3 54.6 5.1 54 5.1 53.35 5.1 52.75 5.3 52.2 5.45 51.7 5.75 50.95 6.3 50.35 7.25
L 50.3 7.25 50.2 5.4 48.35 5.4 48.45 17 50.5 17 50.5 10
Q 50.5 9.4 50.7 8.95 50.95 8.1 51.6 7.5 52.35 6.85 53.3 6.85 53.9 6.85 54.35 7.1 54.8 7.3 55.1 7.75 55.4 8.2 55.55 8.75 55.7 9.35 55.7 10.05
L 55.7 17 57.8 17 57.8 9.85
Q 57.8 9.3 57.95 8.75 58.25 7.95 58.9 7.45 59.6 6.85 60.45 6.85 61.1 6.85 61.55 7.1 62.05 7.35 62.35 7.8 62.65 8.25 62.8 8.95 63 9.6 63 10.45
L 63 17 65.05 17 65.05 10.15
Q 65.05 8.75 64.65 7.65 64.35 6.75 63.7 6.15 63.2 5.6 62.45 5.35
M 74.65 5.55
Q 73.6 5.1 72.35 5.1 71.15 5.1 70.1 5.55 69.05 5.95 68.3 6.75 67.5 7.55 67.05 8.7 66.6 9.85 66.6 11.3 66.6 12.65 67.05 13.75 67.45 14.85 68.2 15.65 68.95 16.45 70 16.85 71 17.25 72.2 17.25 73.25 17.25 74.25 16.9 75.35 16.5 76.15 15.8 77 15 77.45 13.85 77.7 13.25 77.85 12.6 77.95 11.9 77.95 11.1 77.95 9.8 77.55 8.65 77.15 7.6 76.4 6.8 75.65 5.95 74.65 5.55
M 72.3 6.7
Q 73.2 6.7 73.9 7.1 74.55 7.5 75 8.2 75.4 8.8 75.6 9.65 75.8 10.4 75.8 11.15 75.8 12.15 75.55 13 75.25 13.8 74.8 14.4 74.3 15 73.7 15.35 73 15.7 72.25 15.7 71.5 15.7 70.85 15.35 70.2 15 69.75 14.4 69.25 13.8 69 13 68.75 12.15 68.75 11.2 68.75 10.35 68.95 9.6 69.2 8.75 69.6 8.15 70.05 7.45 70.7 7.1 71.4 6.7 72.3 6.7
M 85.15 5.4
L 82.15 5.4 82.15 2.05 80.1 2.6 80.1 5.4 78.3 5.4 78.3 7 80.1 7 80.1 13.35
Q 80.1 14.4 80.25 15.1 80.45 15.9 80.9 16.35 81.25 16.8 81.85 17 82.45 17.25 83.2 17.25 84.35 17.25 85.05 16.95
L 84.95 15.35
Q 84.4 15.5 83.75 15.5 82.9 15.5 82.5 14.95 82.15 14.4 82.15 13.25
L 82.15 7 85.15 7 85.15 5.4
M 93.45 5.7
Q 93 5.4 92.4 5.25 91.8 5.1 91.1 5.1 89.85 5.1 88.85 5.6 87.85 6.05 87.1 6.95 86.4 7.8 86.05 8.95 85.65 10.05 85.65 11.4 85.65 12.7 86.05 13.8 86.45 14.85 87.2 15.65 87.95 16.4 88.95 16.8 90.05 17.25 91.35 17.25 93.2 17.25 95.25 16.5
L 94.9 15
Q 93.2 15.6 91.65 15.6 90.85 15.6 90.15 15.4 89.45 15.15 88.9 14.65 88.35 14.15 88 13.4 87.7 12.6 87.7 11.55
L 95.85 11.55 95.9 10.6
Q 95.9 9.7 95.7 8.85 95.45 7.8 94.95 7.05 94.35 6.15 93.45 5.7
M 92.4 7
Q 92.95 7.3 93.3 7.85 93.6 8.35 93.75 8.95 93.9 9.5 93.85 10.05
L 87.7 10.05
Q 87.75 9.5 88 8.9 88.2 8.3 88.6 7.8 89 7.25 89.55 6.95 90.2 6.65 90.95 6.65 91.8 6.65 92.4 7
M 102.75 2.6
L 107.7 2.6 107.7 0.85 95.75 0.85 95.75 2.6 100.65 2.6 100.65 17 102.75 17 102.75 2.6
M 113.55 5.1
Q 113 5.1 112.5 5.3 112 5.45 111.6 5.8 111.15 6.15 110.85 6.6 110.5 7.1 110.3 7.65
L 110.2 7.65 110.15 5.4 108.3 5.4 108.4 17 110.5 17 110.5 10.8 110.6 9.85
Q 110.7 9.25 110.95 8.75 111.2 8.25 111.55 7.85 111.9 7.5 112.4 7.3 112.85 7.1 113.4 7.1
L 114.15 7.2 114.15 5.2 113.55 5.1
M 123.35 9.9
Q 123.35 8.95 123.2 8.15 122.95 7.25 122.5 6.65 121.95 5.9 121.15 5.55 120.2 5.1 118.95 5.1 117.85 5.1 116.85 5.4 115.85 5.7 115.15 6.15
L 115.6 7.55
Q 116.25 7.15 117 6.9 117.85 6.7 118.65 6.7 119.45 6.7 120.05 6.95 120.55 7.2 120.85 7.65 121.3 8.3 121.3 9.35
L 121.3 9.6
Q 119.6 9.6 118.3 9.9 117 10.15 116.1 10.7 115.2 11.25 114.75 12.05 114.3 12.9 114.3 13.95 114.3 14.55 114.5 15.15 114.75 15.75 115.2 16.25 115.65 16.7 116.3 17 117 17.25 117.85 17.25 119 17.25 120 16.75 120.85 16.3 121.4 15.55
L 121.45 15.55 121.65 17 123.55 17
Q 123.35 15.95 123.35 14.2
L 123.35 9.9
M 118 11.5
Q 118.95 11.15 121.35 11.05
L 121.35 13.1 121.2 13.75
Q 120.95 14.55 120.25 15.1 119.85 15.4 119.45 15.55 118.95 15.7 118.4 15.7 117.55 15.7 117 15.2 116.4 14.65 116.4 13.7 116.4 12.9 116.85 12.3 117.25 11.8 118 11.5
M 133.6 7.4
L 134.1 5.75
Q 132.4 5.15 131.15 5.15 129.75 5.15 128.6 5.6 127.45 6.05 126.6 6.9 125.8 7.7 125.35 8.85 124.9 10 124.9 11.3 124.9 12.65 125.3 13.75 125.7 14.8 126.5 15.6 127.25 16.4 128.3 16.8 129.4 17.25 130.7 17.25 132.25 17.25 134.05 16.55
L 133.65 15
Q 132.3 15.55 131.1 15.55 130.2 15.55 129.45 15.25 128.75 14.95 128.2 14.4 127.65 13.8 127.35 13.05 127.05 12.2 127.05 11.2 127.05 10.3 127.3 9.5 127.6 8.7 128.1 8.1 128.65 7.5 129.4 7.15 130.2 6.85 131.15 6.85 132.3 6.85 133.6 7.4
M 143.95 7.05
Q 143.35 6.15 142.45 5.7 142 5.4 141.4 5.25 140.8 5.1 140.1 5.1 138.85 5.1 137.85 5.6 136.85 6.05 136.1 6.95 135.4 7.8 135.05 8.95 134.65 10.05 134.65 11.4 134.65 12.7 135.05 13.8 135.45 14.85 136.2 15.65 136.95 16.4 137.95 16.8 139.05 17.25 140.35 17.25 142.2 17.25 144.25 16.5
L 143.9 15
Q 142.2 15.6 140.65 15.6 139.85 15.6 139.15 15.4 138.45 15.15 137.9 14.65 137.35 14.15 137 13.4 136.7 12.6 136.7 11.55
L 144.85 11.55 144.9 10.6
Q 144.9 9.7 144.7 8.85 144.45 7.8 143.95 7.05
M 142.3 7.85
Q 142.6 8.35 142.75 8.95 142.9 9.5 142.85 10.05
L 136.7 10.05
Q 136.75 9.5 137 8.9 137.2 8.3 137.6 7.8 138 7.25 138.55 6.95 139.2 6.65 139.95 6.65 140.8 6.65 141.4 7 141.95 7.3 142.3 7.85 Z"/>
</g>

<g id="CloudKidTraceLogo_0_Layer0_1_FILL">
<path fill="#FFFFFF" stroke="none" d="
M -44.75 366.3
L -56.7 349.15
Q -57.7 348.05 -58.95 347.05 -61.45 345.05 -62.85 345.65 -64.25 346.3 -64.45 349.55 -64.55 351.15 -64.4 352.65
L -59.7 372.55
Q -61.45 376.15 -62.65 379.35 -64.45 384.2 -63.95 385.7 -63.2 387.9 -58.7 391.35 -56.5 393.1 -54.4 394.4
L -54 394.5
Q -53.55 394.55 -53.2 394.2 -52.8 393.75 -53.35 393.15 -55.1 390.05 -54.8 387.75 -54.25 383.55 -52.65 382
L -47.8 379.8 -47.7 379.8 -47.6 379.75 -47.55 379.7 -47.6 379.7 -42.7 377.55
Q -40.4 377.4 -36.85 379.7 -34.95 380.95 -33.7 384.3
L -33.55 384.7
Q -33.35 385.1 -32.95 385.1 -32.2 385.05 -32 384.35 -31.65 381.95 -31.55 379.15 -31.3 373.55 -32.45 371.55 -33.25 370.25 -37.7 368.55 -40.85 367.35 -44.75 366.3 Z"/>
</g>
</defs>

<g id="logo" transform="matrix( 1, 0, 0, 1, 0,0) ">
<g transform="matrix( 1, 0, 0, 1, 0,0) ">
<use xlink:href="#CloudKidTraceLogo_0_Layer0_0_FILL"/>
</g>

<g transform="matrix( 0.4261322021484375, 0, 0, 0.4261322021484375, 27.5,-147.25) ">
<use xlink:href="#CloudKidTraceLogo_0_Layer0_1_FILL"/>
</g>
</g>
</svg>
